<?xml version="1.0" encoding="utf-8"?>
<!-- Generator: Adobe Illustrator 24.3.0, SVG Export Plug-In . SVG Version: 6.00 Build 0)  -->
<svg version="1.1" xmlns="http://www.w3.org/2000/svg" xmlns:xlink="http://www.w3.org/1999/xlink" x="0px" y="0px"
	 viewBox="0 0 799 800" style="enable-background:new 0 0 799 800;" xml:space="preserve">
<style type="text/css">
	.st0{fill:#111111;}
	.st1{fill:none;stroke:#FFFFFF;stroke-miterlimit:10;}
	.st2{fill:#FFFFFF;}
</style>
<g id="Layer_3">
	<g>
		<rect class="st0" width="799" height="799"/>
	</g>
</g>
<g id="Layer_1">
</g>
<g id="Layer_2">
	<g id="Layer_1_1_">
		<g>
			<circle class="st1" cx="397.92" cy="390.31" r="370.69"/>
			<path class="st1" d="M47.38,315.89C100.62,96.77,397.92,47.52,397.92,47.52s-198.44,91.97-248.05,268.36
				c0,0-18.95-156.05,55.98-242.7"/>
			<path class="st1" d="M65.35,464.72c0,0,262.75,162.61,656.56,0c0,0-124.79,286.82-316.03,259.85"/>
			<path class="st1" d="M75.45,313.14c0,0,260.3-176.54,650.44,0"/>
			<path class="st1" d="M276.04,464.72"/>
			<path class="st1" d="M339.73,464.72c5.25,45.06,10.84,82.9,15.46,111.62c6.97,43.28,11.03,61.31,16.54,79.93
				c8.56,28.94,18.5,52.14,26.18,68.24c-1.01,0.31-2.49,0.76-4.29,1.3C100.42,812.79,116.8,464.73,116.8,464.72l0,0"/>
			<path class="st1" d="M326.67,315.89c0,0-29.35-386.51,71.25-268.36c0,0-79.06,93.35-106.36,268.36"/>
			<path class="st1" d="M511.22,315.89c0,0,39.34-377.99-111.49-269.68c-0.6,0.43-1.2,0.87-1.81,1.32c-10.17,7.49,9.65,0.36,0,0
				c-172.24-6.38-260.28,78.84-260.28,78.84"/>
			<path class="st1" d="M466.5,329.5c1.2-35.75-0.69-82.21-12-135c-13.53-63.18-35.81-113.27-54.77-148.28"/>
			<path class="st1" d="M177.23,315.89c0,0-141.77-42.99-76.55-146.22"/>
			<path class="st1" d="M110.9,155.7c0,0,289.13-161.57,574.01,0"/>
			<path class="st1" d="M673.73,315.89c0,0,28.73-331.39-275.81-268.36c-11.75,2.43-22.6,11.26-36.05,21.86
				c-79.06,62.3-158.04,214.12-113.37,280.11c41.29,61,197.67,62.59,365.62-36.36"/>
			<path class="st1" d="M397.92,47.52C658.37,103,734.17,315.89,734.17,315.89"/>
			<path class="st1" d="M748.05,315.89c0,0-2.63-78.8-40.64-129.66"/>
			<path class="st1" d="M622.28,313.14c0,0,109.51-27.56,96.22-109.56"/>
			<path class="st1" d="M256.74,48.54c0,0-169.1,128.3,169.29,122.75C670.6,167.29,544.62,48.83,544.62,48.83"/>
			<path class="st1" d="M277.67,39.55c0,0,68.95-9.54,115.96,10.06"/>
			<path class="st1" d="M667.66,136.05c0,0-86.98-85.41-287.91-88.52"/>
			<path class="st1" d="M622.28,326c0,0-97.15-214.13-231.73-286.44"/>
			<path class="st1" d="M472.02,464.72c-1.68,436.84-74.11,259.79-74.11,259.79s68.54-84.78,96.97-259.79"/>
			<path class="st1" d="M641.83,460.59c0,0-85.44,260.5-243.91,263.92C167.54,729.48,75.45,460.74,75.45,460.74"/>
			<path class="st1" d="M75.45,573.26C60.3,493.01,185.39,460.59,185.39,460.59s65.07,210.89,212.52,263.92
				c0,0,255.24,116.42,252.95-259.79"/>
			<path class="st1" d="M276.04,460.59c-3.52,55.12-3.52,391.06,124.64,269.94"/>
			<path class="st1" d="M107.68,620.91c0,0,345.8,185.13,603.96-33.07"/>
			<path class="st1" d="M719.62,571.8c0,0,12.65-61.6-97.34-107.08"/>
			<path class="st1" d="M405.88,724.58c0,0,178.15,6.86,233.23-52.77"/>
			<path class="st1" d="M270.38,736.48c0,0-199.37-101.08,123.24-127.85c0,0,274.85-5.09,160.93,117.74"/>
			<path class="st1" d="M397.92,724.51c0,0-153.35,22.53-273.04-83.49"/>
			<rect x="19.21" y="310.38" class="st0" width="759.04" height="159.85"/>
			<path class="st1" d="M177.23,315.89"/>
		</g>
	</g>
	<g>
		<g>
			<path class="st2" d="M113.86,414.41c0-18.08,0.18-43.72,0.46-58.06h-0.61c-2.44,23.37-7.6,70.7-10.79,95.28H83.86
				c-2.58-25.54-7.62-73.73-10.06-95.58h-0.72c0.29,13.72,0.88,39.05,0.88,59.18v36.39H53.57V334.8h32.25
				c3.04,22.21,6.46,51.38,7.79,67.2h0.48c1.8-16.91,5.68-41.46,9.27-67.2h32.12v116.83h-21.63V414.41z"/>
			<path class="st2" d="M204.53,423.83l-2.88,27.81h-22.91l16.52-116.83h33.5l16.91,116.83H222.3l-3.22-27.81H204.53z
				 M217.18,404.01c-1.66-14.95-3.99-37.69-5.08-48.88h-0.89c-0.4,8.14-3.18,34.43-4.72,48.88H217.18z"/>
			<path class="st2" d="M307.1,415.62v8.09c0,7.68,1.91,11.25,7.03,11.25c5.18,0,6.39-5.29,6.39-10.8c0-11.03-2.07-14.22-14-24.2
				c-13.16-11.15-19.93-17.75-19.93-34.96c0-16.69,5.53-32.07,27.66-32.07c23.5,0,26.97,16.03,26.97,29.4v6.72H320v-7
				c0-7.09-1.16-10.6-5.61-10.6c-4.15,0-5.48,3.57-5.48,10.18c0,7.04,1.28,10.51,10.94,18.05c17.18,13.5,23.35,21.08,23.35,40.32
				c0,18.29-6.25,33.36-29.46,33.36c-22.29,0-28.65-13.44-28.65-30.76v-7H307.1z"/>
			<path class="st2" d="M506.37,414.41c0-18.08,0.17-43.72,0.46-58.06h-0.61c-2.44,23.37-7.6,70.7-10.79,95.28h-19.06
				c-2.58-25.54-7.62-73.73-10.06-95.58h-0.72c0.29,13.72,0.88,39.05,0.88,59.18v36.39h-20.39V334.8h32.25
				c3.04,22.21,6.46,51.38,7.79,67.2h0.48c1.8-16.91,5.68-41.46,9.27-67.2H528v116.83h-21.63V414.41z"/>
			<path class="st2" d="M598.9,334.8v88.97c0,6.81,2.07,10.45,7.2,10.45c5.42,0,7.09-4.15,7.09-10.45V334.8h22.75v87.51
				c0,20.71-9.51,30.95-30.19,30.95c-20.3,0-29.47-9.9-29.47-31.13V334.8H598.9z"/>
			<path class="st2" d="M684.35,451.63V334.8h24.86c3.71,14.26,15.42,67.17,16.34,72.3h0.54c-1.24-15.54-2.04-36.8-2.04-53.1v-19.2
				h20.86v116.83h-25.09c-2.42-11.12-15.2-71.57-15.95-75.3h-0.61c0.88,13.75,1.56,36.99,1.56,55.35v19.95H684.35z"/>
		</g>
	</g>
</g>
</svg>
