<?xml version="1.0" encoding="utf-8"?>
<!-- Generator: Adobe Illustrator 24.3.0, SVG Export Plug-In . SVG Version: 6.00 Build 0)  -->
<svg version="1.1" id="Layer_1" xmlns="http://www.w3.org/2000/svg" xmlns:xlink="http://www.w3.org/1999/xlink" x="0px" y="0px"
	 viewBox="0 0 799 800" style="enable-background:new 0 0 799 800;" xml:space="preserve">
<style type="text/css">
	.st0{fill:#111111;}
	.st1{fill:none;stroke:#FFFFFF;stroke-miterlimit:10;}
	.st2{fill:#FFFFFF;}
</style>
<g id="Layer_3">
	<g>
		<path class="st0" d="M760,470.1c-17.5,80-60.9,150.3-120.9,201.7c-5.6,6-12.4,11.4-20.2,16.2c-53.1,39.5-117.2,65.1-186.9,71.5
			c-1.7,0.5-3.4,0.7-5.1,0.4c-9.6,0.7-19.3,1.1-29,1.1c-49.5,0-96.7-9.7-139.8-27.3c-23.8-6.3-43.7-17.3-60.1-31.2
			c-26.9-17.3-51.5-38-73-61.5c-18.9-20.6-35.5-43.3-49.4-67.8c-17.9-31.5-31.3-65.8-39.4-102.2h-1c-5.5-20.7-10.8-49.5-10.2-84
			c0.5-31.9,5.9-58.7,11.4-78.4c0,0,0,0,0-0.1c12.8-57.1,38.8-109.2,74.6-152.9c0,0,0,0,0,0c8.4-10.2,17.3-20,26.7-29.3
			c0,0,0,0,0.1-0.1c20.5-20.2,43.3-38,68.1-53c22.5-13.7,46.6-25,71.9-33.7c37.7-12.9,78.1-19.9,120.2-19.9
			c52.8,0,103,11,148.4,30.9c46.1,20.1,87.3,49.4,121.3,85.5c0,0,0.1,0.1,0.1,0.1c14.7,15.6,28.1,32.5,39.9,50.4
			c5.6,7.5,10.4,15.7,14.6,24.1c17.1,30.8,30,64.4,37.8,99.9c0,0,0,0,0,0c5.3,19.3,10.3,45.3,10.7,76.2
			C771.1,421,765.6,449.6,760,470.1z"/>
	</g>
</g>
<g id="Layer_1_1_">
</g>
<g id="Layer_2_1_">
	<g id="Layer_1_2_">
		<g>
			<path class="st1" d="M768.6,390.3c0,27.4-3,54.1-8.6,79.8c-17.5,80-60.9,150.3-120.9,201.7c-6.5,5.6-13.3,11-20.2,16.2
				c-53.1,39.5-117.2,65.1-186.9,71.5c-1.7,0.1-3.4,0.3-5.1,0.4c-9.6,0.7-19.3,1.1-29,1.1c-49.5,0-96.7-9.7-139.8-27.3
				c-21.1-8.6-41.2-19.1-60.1-31.2c-26.9-17.3-51.5-38-73-61.5c-18.9-20.6-35.5-43.3-49.4-67.8c-17.9-31.5-31.3-65.8-39.4-102.2
				c-5.8-26-8.8-53-8.8-80.8c0-28,3.1-55.4,9-81.6c0,0,0,0,0-0.1c12.8-57.1,38.8-109.2,74.6-152.9c0,0,0,0,0,0
				c8.4-10.2,17.3-20,26.7-29.3c0,0,0,0,0.1-0.1c20.5-20.2,43.3-38,68.1-53c22.5-13.7,46.6-25,71.9-33.7
				c37.7-12.9,78.1-19.9,120.2-19.9c52.8,0,103,11,148.4,30.9c46.1,20.1,87.3,49.4,121.3,85.5c0,0,0.1,0.1,0.1,0.1
				c14.7,15.6,28.1,32.5,39.9,50.4c3.8,5.8,7.5,11.8,11,17.8c1.2,2.1,2.4,4.2,3.6,6.3c17.1,30.8,30,64.4,37.8,99.9c0,0,0,0,0,0
				C765.6,336.2,768.6,362.9,768.6,390.3z"/>
			<path class="st1" d="M47.4,315.9C100.6,96.8,397.9,47.5,397.9,47.5s-198.4,92-248.1,268.4c0,0-18.9-156.1,56-242.7"/>
			<path class="st1" d="M65.3,464.7c0,0,262.8,162.6,656.6,0c0,0-124.8,286.8-316,259.9"/>
			<path class="st1" d="M75.4,313.1c0,0,260.3-176.5,650.4,0"/>
			<path class="st1" d="M276,464.7"/>
			<path class="st1" d="M116.8,464.7c0,0-0.1,2.2-0.2,6.3c0,4.3,0,10.5,0.3,18.3c0,0.8,0.1,1.7,0.1,2.5c0.7,17,2.7,40.4,7.6,66.2
				c5.1,26.6,13.3,55.7,26.6,82.6c6.2,12.5,13.4,24.6,22,35.7c7.3,9.5,15.5,18.3,24.8,26.1c16.5,14,36.3,24.9,60.1,31.2
				c4,1.1,8.1,2,12.3,2.8c14.8,2.8,31,3.9,48.8,3c22.3-1.1,47-5.5,74.4-13.6c1.8-0.5,3.2-1,4.3-1.3c0,0,0,0,0,0
				c-4-8.4-8.6-18.8-13.4-30.9c-4.3-11-8.7-23.5-12.8-37.3c-3.7-12.5-6.7-24.7-10.5-44.5c-1.8-9.7-3.8-21.2-6.1-35.4
				c-1.9-11.8-4-25.1-6.1-39.8c-2.8-19.5-5.8-41.6-8.7-65.8c-0.2-2-0.5-4-0.7-6"/>
			<path class="st1" d="M326.7,315.9c0,0-29.4-386.5,71.2-268.4c0,0-79.1,93.4-106.4,268.4"/>
			<path class="st1" d="M137.6,126.4c0,0,0,0,0.1-0.1c1.8-1.7,20.4-18.9,55.7-36.9c11.3-5.7,24.2-11.6,38.8-16.9
				c29.2-10.8,65.1-19.9,107.6-23.5c15-1.3,30.9-1.9,47.6-1.6c3.4,0.1,6.9,0.2,10.4,0.3c0,0,0,0,0,0c0,0,0,0,0,0c0,0,0,0,0,0
				s0,0,0,0c1.4,0.1,2.2,0.3,2.5,0.6c0,0,0.1,0,0.1,0.1c0.9,1.1-4,3.1-5.3,2.7c-0.7-0.2-0.4-1,2-2.9c0.2-0.2,0.4-0.3,0.6-0.5
				c0,0,0,0,0,0c0.6-0.4,1.2-0.9,1.8-1.3c0.4-0.3,0.8-0.5,1.1-0.8c35.2-24.9,59.9-23,77.2-5.7c5.1,5.1,9.6,11.6,13.4,19.1
				c3.3,6.5,6.3,13.9,8.8,21.8c1.1,3.5,2.2,7.1,3.1,10.8c4.6,17.5,7.6,37.2,9.5,57.6c0.4,4.4,0.8,8.8,1.1,13.2
				c2.1,29.2,2.1,58.9,1.4,84.3c-0.8,29.2-2.7,52.6-3.6,63.2c-0.4,3.9-0.6,6.1-0.6,6.1"/>
			<path class="st1" d="M466.5,329.5c1.2-35.8-0.7-82.2-12-135C441,131.3,418.7,81.2,399.7,46.2"/>
			<path class="st1" d="M177.2,315.9c0,0-141.8-43-76.6-146.2"/>
			<path class="st1" d="M684.9,155.7c-15.9-9-31.8-17.1-47.7-24.1c-20.1-9-40.2-16.5-60.1-22.7c-14.4-4.5-28.7-8.3-42.9-11.4
				c-10.3-2.3-20.6-4.3-30.8-6c-16.7-2.8-33.1-4.7-49.3-5.9c-12.1-0.9-24-1.4-35.7-1.6c-15.7-0.2-31.1,0.2-46.1,1.1
				c-10.6,0.6-20.9,1.5-31,2.6c0,0,0,0,0,0c-3.9,0.4-7.7,0.9-11.5,1.4c-0.7,0.1-1.4,0.2-2.1,0.3c-42,5.5-79.8,14.6-111.7,24.2
				c-0.5,0.1-0.9,0.3-1.4,0.4c-15.5,4.7-29.5,9.6-41.9,14.3c-38.3,14.4-60.9,26.9-61.7,27.4c0,0,0,0,0,0"/>
			<path class="st1" d="M673.7,315.9c0,0,28.7-331.4-275.8-268.4c-11.8,2.4-22.6,11.3-36,21.9c-79.1,62.3-158,214.1-113.4,280.1
				c41.3,61,197.7,62.6,365.6-36.4"/>
			<path class="st1" d="M397.9,47.5C658.4,103,734.2,315.9,734.2,315.9"/>
			<path class="st1" d="M707.4,186.2c0.1,0.1,0.1,0.2,0.2,0.2c5.6,7.5,10.4,15.7,14.6,24.1c19.5,39.3,24.4,84.4,25.5,99.8
				c0.3,3.5,0.3,5.5,0.3,5.5"/>
			<path class="st1" d="M622.3,313.1c0,0,109.5-27.6,96.2-109.6"/>
			<path class="st1" d="M256.7,48.5c0,0-169.1,128.3,169.3,122.8c244.6-4,118.6-122.5,118.6-122.5"/>
			<path class="st1" d="M277.7,39.5c0,0,68.9-9.5,116,10.1"/>
			<path class="st1" d="M379.8,47.5c3,0.1,6.1,0.1,9,0.2c2.2,0.1,4.5,0.1,6.7,0.2c0.2,0,0.4,0,0.6,0c0.3,0,0.5,0,0.8,0
				c0.1,0,0.2,0,0.4,0c0.1,0,0.1,0,0.2,0c1,0,2,0.1,3,0.1c0.1,0,0.2,0,0.2,0c0,0,0.1,0,0.1,0c1.6,0.1,3.2,0.2,4.8,0.2
				c31.6,1.7,60.1,5.4,85.7,10.4c29.6,5.8,55.3,13.4,77.1,21.5c18.7,6.9,34.6,14.3,47.8,21.2c33.7,17.8,50.1,33.4,51.2,34.5
				c0,0,0.1,0.1,0.1,0.1"/>
			<path class="st1" d="M622.3,326c0,0-97.2-214.1-231.7-286.4"/>
			<path class="st1" d="M494.9,464.7c-0.3,2-0.6,3.9-1,5.8c-3.6,21.2-7.8,41.1-12.3,59.6c-3.7,15.1-7.7,29.3-11.8,42.5
				c-4.3,13.9-8.8,26.8-13.3,38.8c-13.7,36.4-27.7,63.9-38.6,82.7c-11.8,20.3-19.9,30.4-19.9,30.4s1,2.4,2.8,6
				c4.7,9.7,15,27.7,26.3,29.3c1.7,0.2,3.4,0.1,5.1-0.4c5.4-1.7,10.8-7.8,15.9-20.7c1.5-3.9,3-8.4,4.5-13.6c0.1-0.3,0.2-0.6,0.2-0.9
				c1.1-3.9,2.1-8.2,3.1-12.8c1.2-5.8,2.5-12.3,3.6-19.4c3.3-20.5,6.2-46.5,8.3-79.4c0.8-12.3,1.5-25.6,2.1-40
				c0.6-12.9,1-26.6,1.4-41.3c0.4-18.8,0.8-39,0.9-60.8c0-1.9,0-3.9,0-5.9"/>
			<path class="st1" d="M641.8,460.6c0,0-85.4,260.5-243.9,263.9c-230.4,5-322.5-263.8-322.5-263.8"/>
			<path class="st1" d="M75.4,573.3C60.3,493,185.4,460.6,185.4,460.6s65.1,210.9,212.5,263.9c0,0,255.2,116.4,252.9-259.8"/>
			<path class="st1" d="M276,460.6c-3.5,55.1-3.5,391.1,124.6,269.9"/>
			<path class="st1" d="M107.7,620.9c0,0,345.8,185.1,604-33.1"/>
			<path class="st1" d="M719.6,571.8c0,0,12.7-61.6-97.3-107.1"/>
			<path class="st1" d="M639.1,671.8c-5.6,6-12.4,11.4-20.2,16.2c-11.1,6.8-24.2,12.4-38.3,16.9c-3.7,1.2-7.5,2.3-11.3,3.4
				c-35.7,9.9-76.1,14-107.8,15.6c-3,0.2-6,0.3-8.8,0.4c-26.5,1.1-45.1,0.4-46.6,0.4c-0.1,0-0.1,0-0.1,0"/>
			<path class="st1" d="M270.4,736.5c0,0-199.4-101.1,123.2-127.8c0,0,274.8-5.1,160.9,117.7"/>
			<path class="st1" d="M397.9,724.5c0,0-153.4,22.5-273-83.5"/>
			<path class="st0" d="M760,470.1c0,0,0,0.1,0,0.1c-13.5,0-27.1,0-40.6,0.1c-3.7,0-7.5,0-11.2,0c-19.1,0-38.2,0-57.3,0.1
				c-4.2,0-8.3,0-12.5,0h-3.2c-47.1,0.1-94.2,0.1-141.3,0.2c-7.3,0-14.6,0-21.9,0c-43.8,0-87.7,0.1-131.5,0.2
				c-21.6,0-43.3,0-64.9,0.1c-28.9,0-57.8,0.1-86.7,0.1c-11,0-22,0-33,0c-13.1,0-26.2,0-39.2,0c-12.4,0-24.9,0-37.3,0h-2.6
				c-13.6,0-27.1,0-40.7,0h-1c-5.5-20.7-10.8-49.5-10.2-84c0.5-31.9,5.9-58.7,11.4-78.4c0,0,0,0,0-0.1c4.3,0,8.6,0,13,0
				c11.1,0,22.2,0.1,33.3,0.1c22.2,0.1,44.4,0.1,66.7,0.2c0.9,0,1.8,0,2.7,0c2.4,0,4.8,0,7.2,0c25.6,0.1,51.2,0.1,76.7,0.2
				c18.9,0,37.9,0.1,56.8,0.1c11.2,0,22.4,0.1,33.6,0.1c46.9,0.1,93.7,0.2,140.6,0.3c15,0,30,0.1,45,0.1
				c34.3,0.1,68.5,0.2,102.8,0.3c5.9,0,11.7,0,17.6,0c14,0,27.9,0.1,41.9,0.1c15.2,0,30.3,0.1,45.5,0.1c4.1,0,8.3,0,12.4,0
				c5.2,0,10.5,0,15.7,0c4.1,0,8.2,0,12.3,0c0,0,0,0,0,0c5.3,19.3,10.3,45.3,10.7,76.2C771.1,421,765.6,449.6,760,470.1z"/>
			<path class="st1" d="M177.2,315.9"/>
		</g>
	</g>
	<g>
		<g>
			<path class="st2" d="M113.9,414.4c0-18.1,0.2-43.7,0.5-58.1h-0.6c-2.4,23.4-7.6,70.7-10.8,95.3H83.9
				c-2.6-25.5-7.6-73.7-10.1-95.6h-0.7c0.3,13.7,0.9,39,0.9,59.2v36.4H53.6V334.8h32.2c3,22.2,6.5,51.4,7.8,67.2h0.5
				c1.8-16.9,5.7-41.5,9.3-67.2h32.1v116.8h-21.6L113.9,414.4L113.9,414.4z"/>
			<path class="st2" d="M228.8,334.8h-33.5l-16.5,116.8h22.9l2.9-27.8h14.5l3.2,27.8h23.4L228.8,334.8z M206.5,404
				c1.5-14.5,4.3-40.7,4.7-48.9h0.9c1.1,11.2,3.4,33.9,5.1,48.9H206.5z"/>
			<path class="st2" d="M307.1,415.6v8.1c0,7.7,1.9,11.2,7,11.2c5.2,0,6.4-5.3,6.4-10.8c0-11-2.1-14.2-14-24.2
				c-13.2-11.1-19.9-17.8-19.9-35c0-16.7,5.5-32.1,27.7-32.1c23.5,0,27,16,27,29.4v6.7H320v-7c0-7.1-1.2-10.6-5.6-10.6
				c-4.1,0-5.5,3.6-5.5,10.2c0,7,1.3,10.5,10.9,18c17.2,13.5,23.4,21.1,23.4,40.3c0,18.3-6.2,33.4-29.5,33.4
				c-22.3,0-28.6-13.4-28.6-30.8v-7L307.1,415.6L307.1,415.6z"/>
			<path class="st2" d="M506.4,414.4c0-18.1,0.2-43.7,0.5-58.1h-0.6c-2.4,23.4-7.6,70.7-10.8,95.3h-19.1
				c-2.6-25.5-7.6-73.7-10.1-95.6h-0.7c0.3,13.7,0.9,39,0.9,59.2v36.4h-20.4V334.8h32.2c3,22.2,6.5,51.4,7.8,67.2h0.5
				c1.8-16.9,5.7-41.5,9.3-67.2H528v116.8h-21.6V414.4z"/>
			<path class="st2" d="M598.9,334.8v89c0,6.8,2.1,10.5,7.2,10.5c5.4,0,7.1-4.1,7.1-10.5v-89h22.8v87.5c0,20.7-9.5,31-30.2,31
				c-20.3,0-29.5-9.9-29.5-31.1v-87.3H598.9z"/>
			<path class="st2" d="M684.3,451.6V334.8h24.9c3.7,14.3,15.4,67.2,16.3,72.3h0.5c-1.2-15.5-2-36.8-2-53.1v-19.2h20.9v116.8h-25.1
				c-2.4-11.1-15.2-71.6-16-75.3h-0.6c0.9,13.8,1.6,37,1.6,55.4v20L684.3,451.6L684.3,451.6z"/>
		</g>
	</g>
</g>
</svg>
