<?xml version="1.0" encoding="utf-8"?>
<!-- Generator: Adobe Illustrator 24.3.0, SVG Export Plug-In . SVG Version: 6.00 Build 0)  -->
<svg version="1.1" id="Layer_1" xmlns="http://www.w3.org/2000/svg" xmlns:xlink="http://www.w3.org/1999/xlink" x="0px" y="0px"
	 viewBox="0 0 309.3 309.3" style="enable-background:new 0 0 309.3 309.3;" xml:space="preserve">
<style type="text/css">
	.st0{fill:#AE4047;}
	.st1{fill:#FFFFFF;}
</style>
<g>
	<g>
		<path class="st0" d="M96.2,146.2H87v18.2h9.2c5.7,0,9.2-3.9,9.2-9.1C105.5,150.1,101.9,146.2,96.2,146.2z"/>
		<path class="st0" d="M154.3,146.8h-8.8v37.5h9.8c12.5,0,18.2-8.2,18.2-18.5C173.4,154.8,167.6,146.8,154.3,146.8z"/>
		<path class="st0" d="M314.4,82.8V11.7c0-11.3-10.3-20.5-23-20.5h-79.9L211.3-9H16C3.3-9-7,0.2-7,11.5V299
			c0,11.3,10.3,20.5,23,20.5h275.7c12.7,0,23-9.2,23-20.5V83.1L314.4,82.8z M97,175.6H87v14.1c0,4.3-2.9,6.7-6.7,6.7
			c-3.9,0-6.7-2.4-6.7-6.7v-48.1c0-4,2.5-6.7,7-6.7h15.9c13.2,0,23,8.2,23,20.5C119.5,167.8,109.3,175.6,97,175.6z M155.4,196.2
			h-16.8c-3.2,0-7.6-1.5-7.6-6.5v-48.2c0-4,3.1-6.6,7.4-6.6h16c21.7,0,34,12.4,34.1,31.5C188.5,184.5,175.4,196.2,155.4,196.2z
			 M228.6,146.7h-15.7v18h13.3c4.1,0,6.2,2.9,6.2,5.8c0,3-2.1,6-6.2,6h-13.3v13.2c0,4.3-2.7,6.7-6.4,6.7s-6.4-2.4-6.4-6.7v-48.1
			c0-3.5,2.4-6.7,6.7-6.7h21.9c3.8,0,5.7,2.9,5.7,5.9C234.3,143.7,232.4,146.7,228.6,146.7z"/>
		<path class="st1" d="M228.6,134.9h-21.9c-4.3,0-6.7,3.2-6.7,6.7v48.1c0,4.3,2.7,6.7,6.4,6.7s6.4-2.4,6.4-6.7v-13.2h13.3
			c4.1,0,6.2-3,6.2-6c0-2.9-2.1-5.8-6.2-5.8h-13.3v-18h15.7c3.8,0,5.7-3,5.7-5.9C234.3,137.8,232.3,134.9,228.6,134.9z"/>
		<path class="st1" d="M154.5,134.9h-16c-4.4,0-7.4,2.7-7.4,6.6v48.2c0,4.9,4.4,6.5,7.6,6.5h16.8c19.9,0,33.1-11.7,33.1-29.8
			C188.5,147.3,176.1,134.9,154.5,134.9z M155.2,184.3h-9.8v-37.5h8.8c13.3,0,19.1,8,19.1,19C173.4,176.1,167.7,184.3,155.2,184.3z"
			/>
		<path class="st1" d="M96.5,134.9H80.6c-4.5,0-7,2.6-7,6.7v48.1c0,4.3,2.9,6.7,6.7,6.7c3.9,0,6.7-2.4,6.7-6.7v-14.1h10
			c12.3,0,22.4-7.8,22.4-20.3C119.5,143.1,109.7,134.9,96.5,134.9z M96.2,164.3H87v-18.2h9.2c5.7,0,9.2,3.9,9.2,9.1
			C105.4,160.4,101.9,164.3,96.2,164.3z"/>
	</g>
</g>
</svg>
